<?xml version="1.0" encoding="utf-8"?>
<svg viewBox="0 0 500 500" xmlns="http://www.w3.org/2000/svg">
  <rect x="-13.466" y="-1.953" width="554.929" height="514.334" style="stroke: rgb(0, 0, 0); fill: rgb(52, 152, 219);"/>
  <path d="M 147.115 148.171 L 217.587 148.171 L 217.587 271.885 Q 217.587 310.846 210.68 331.181 Q 203.772 351.515 182.895 365.64 Q 162.017 379.766 129.42 379.766 Q 94.96 379.766 76.022 370.452 Q 57.085 361.139 46.763 343.21 Q 36.44 325.282 34.577 298.894 L 101.79 289.736 Q 101.945 304.792 104.428 312.088 Q 106.912 319.383 112.811 323.885 Q 116.846 326.834 124.297 326.834 Q 136.094 326.834 141.605 318.064 Q 147.115 309.294 147.115 288.494 Z M 256.594 148.171 L 361.06 148.171 Q 391.95 148.171 410.965 156.553 Q 429.98 164.935 442.398 180.613 Q 454.816 196.29 460.404 217.09 Q 465.992 237.891 465.992 261.174 Q 465.992 297.652 457.687 317.754 Q 449.383 337.855 434.637 351.437 Q 419.89 365.02 402.971 369.521 Q 379.842 375.73 361.06 375.73 L 256.594 375.73 Z M 326.911 199.705 L 326.911 324.04 L 344.141 324.04 Q 366.183 324.04 375.496 319.151 Q 384.809 314.261 390.087 302.076 Q 395.365 289.891 395.365 262.571 Q 395.365 226.404 383.568 213.055 Q 371.771 199.705 344.451 199.705 Z" style="fill: rgb(242, 197, 66);"/>
</svg>