<?xml version="1.0" encoding="utf-8"?>
<svg viewBox="135.68 167.1528 278.64 146.9782" xmlns="http://www.w3.org/2000/svg">
  <path  d="M238.05261,213.17967c2.15183,-0.28914 4.00156,-2.17778 3.87367,-4.43155c-0.13901,-2.44468 -2.213,-4.48438 -4.69381,-4.44268c-0.92579,0.01575 -1.82378,0.52545 -2.33903,1.28443c-1.27701,1.01939 -1.88309,2.69952 -1.54762,4.40561c0.43092,2.18983 2.5809,3.46962 4.70679,3.18419zM247.43375,229.30545c-5.57697,3.04889 -10.96119,6.48238 -16.16099,10.18646c1.86641,-4.78371 3.8329,-9.52664 5.99214,-14.19358c1.49294,-3.2259 -3.29818,-6.05423 -4.80131,-2.80609c-0.44204,0.95544 -0.85721,1.92016 -1.28443,2.88023c-0.07321,-0.00834 -0.13993,-0.02687 -0.21685,-0.03058c-17.42411,-0.70616 -34.86304,-0.93598 -52.2992,-0.6348c-8.48037,0.14642 -16.9728,0.35864 -25.44298,0.80532c-6.09501,0.32157 -11.65994,1.1862 -16.57338,5.02836c-2.81629,2.2028 1.14357,6.11262 3.93205,3.93205c5.51581,-4.31386 14.07218,-3.49279 20.65464,-3.73466c7.64262,-0.28079 15.28895,-0.46428 22.93621,-0.54862c14.89047,-0.16496 29.78093,0.0695 44.66121,0.63943c-2.04526,4.91808 -3.95615,9.88898 -5.79846,14.88769c-4.09238,3.27872 -8.05594,6.71313 -11.86011,10.28006c-9.9381,9.31534 -18.37677,20.20611 -22.41076,33.39512c-1.69589,5.54454 -3.40568,12.67191 -1.86455,18.42496c1.15747,4.32313 4.98202,7.88172 9.56556,5.60385c5.41202,-2.69026 9.34129,-11.16785 12.00467,-16.25459c3.48352,-6.65382 6.348,-13.64867 9.09849,-20.63054c3.57342,-9.07347 6.7502,-18.30541 10.10213,-27.46785c7.12088,-5.59366 14.67454,-10.6424 22.57386,-14.9609c3.13879,-1.71628 0.3364,-6.51944 -2.80795,-4.80131zM215.40553,266.66877c-3.12674,8.40438 -6.36932,16.81155 -10.3162,24.87027c-1.84787,3.77359 -3.8746,7.46933 -6.23216,10.95193c-0.77751,1.1482 -3.02109,5.38885 -4.31201,5.53898c-2.43912,0.28357 -2.45858,-1.89235 -2.56515,-3.66053c-0.91467,-15.18331 9.08459,-30.52787 19.31739,-40.76344c2.57071,-2.57164 5.22853,-5.07284 7.95863,-7.50084c-1.27053,3.52615 -2.54383,7.05231 -3.8505,10.56363zM272.79153,229.63721c-1.02773,0.4476 -5.91893,0.98603 -9.46733,0.52637c-0.38644,-2.70601 -1.55688,-5.33232 -4.02287,-6.28684c-0.02873,-0.01112 -0.05468,-0.01483 -0.08248,-0.02502c-0.30211,-1.7274 -2.1333,-3.23146 -4.08404,-2.05824c-7.03377,4.2286 -14.24918,14.5967 -10.72581,23.24296c1.82841,4.48716 6.72518,3.82826 10.17997,1.71257c4.01917,-2.46228 7.28862,-6.19324 8.44423,-10.78419c4.37688,0.69782 9.30515,-0.10565 12.56534,-1.52537c3.27131,-1.42714 0.4439,-6.21919 -2.80702,-4.80224zM257.66382,234.6285c-0.43834,1.80524 -1.41139,3.38066 -2.66801,4.73181c-2.11106,2.26953 -6.21734,4.60578 -5.40831,-0.51525c0.59124,-3.743 2.13423,-6.79746 4.56037,-9.26623c0.06487,0.21407 0.14086,0.42629 0.23353,0.63387c0.73025,1.65233 1.90162,2.8895 3.3232,3.81621c-0.01946,0.34752 -0.03522,0.57642 -0.04078,0.59959zM411.63878,225.34281c-17.42411,-0.70616 -34.86304,-0.93598 -52.2992,-0.6348c-8.48037,0.14642 -16.9728,0.35864 -25.44298,0.80532c-4.76239,0.25114 -9.19951,0.84053 -13.25759,2.9173c-0.34288,0.05838 -0.69689,0.19276 -1.05553,0.42814c-5.04133,3.32228 -9.55258,7.36276 -14.49847,10.81848c-2.24636,1.56986 -6.9133,5.59829 -7.53327,1.10743c-0.25021,-1.80988 -0.15939,-3.73374 0.13345,-5.69374c0.11677,-0.30211 0.16681,-0.61997 0.15383,-0.94062c0.8498,-4.68547 2.77459,-9.51366 4.14056,-13.47722c5.88928,-17.09512 13.74319,-33.90574 23.08912,-49.38838c1.85343,-3.07113 -2.95252,-5.86982 -4.80131,-2.80609c-10.6526,17.64745 -20.04208,37.32996 -25.7247,57.22191c-2.74215,-3.09801 -7.17278,-4.17393 -11.48201,-2.85336c-6.62138,2.02951 -12.58109,8.34322 -15.57994,14.41784c-2.36776,4.79575 -0.87853,10.87686 5.5501,9.7231c6.4694,-1.16117 12.76829,-4.80131 18.73634,-8.09393c-0.07043,2.55959 0.33918,4.9848 1.64863,6.89198c2.55403,3.71891 7.26545,2.95252 10.75176,1.10094c6.06443,-3.22126 11.12059,-8.21163 16.72351,-12.18168c0.12233,-0.07136 0.24558,-0.13808 0.3642,-0.23168c5.51488,-4.31386 14.07218,-3.49279 20.65464,-3.73466c7.64262,-0.28079 15.28895,-0.46428 22.93621,-0.54862c15.60218,-0.17237 31.20344,0.08062 46.79358,0.71264c3.57712,0.14457 3.57063,-5.41573 -0.00093,-5.56029zM271.83354,241.04323c-1.01197,-1.22419 5.2378,-7.69267 6.32947,-8.68611c2.8237,-2.56978 10.83053,-8.00775 13.03333,-1.72554c0.26689,0.76176 0.75527,1.26497 1.32891,1.56522c-4.62431,2.56886 -18.97636,10.92042 -20.69171,8.84643z" data-paper-data="{&quot;isPathIcon&quot;:true}"/>
</svg>