<?xml version="1.0" encoding="utf-8"?>
<svg viewBox="0 35 286.661 266.132" xmlns="http://www.w3.org/2000/svg">
  <g fill="#101820" fill-rule="none" stroke="none" stroke-width="1" stroke-linecap="butt" stroke-linejoin="miter" stroke-miterlimit="10" stroke-dasharray="" stroke-dashoffset="0" font-family="none" font-weight="none" font-size="none" text-anchor="none" style="mix-blend-mode: normal" transform="matrix(1, 0, 0, 1, -131.6461944580078, -66.36840820312501)">
    <g data-paper-data="{&quot;isGlobalGroup&quot;:true,&quot;bounds&quot;:{&quot;x&quot;:135.67999999999998,&quot;y&quot;:106.00000000000001,&quot;width&quot;:278.6399999999999,&quot;height&quot;:258}}">
      <g data-paper-data="{&quot;initialText&quot;:&quot;jod&quot;,&quot;isIcon&quot;:&quot;true&quot;,&quot;iconType&quot;:&quot;initial&quot;,&quot;iconStyle&quot;:&quot;standalone&quot;,&quot;rawInitialId&quot;:1068,&quot;selectedEffects&quot;:{&quot;container&quot;:&quot;&quot;,&quot;transformation&quot;:&quot;&quot;,&quot;pattern&quot;:&quot;&quot;},&quot;bounds&quot;:{&quot;x&quot;:135.67999999999998,&quot;y&quot;:167.15275358299647,&quot;width&quot;:278.6399999999999,&quot;height&quot;:146.97815171919052},&quot;fillRule&quot;:&quot;nonzero&quot;,&quot;suitableAsStandaloneIcon&quot;:true}" fill-rule="nonzero"/>
      <g data-paper-data="{&quot;isPrimaryText&quot;:true}" fill-rule="nonzero">
        <path d="M181.03975,210.60397c2.50796,0.42365 4.20068,-1.18169 4.80645,-3.14072c0.67032,-2.16778 -0.05637,-4.76755 -2.52925,-5.53221l-7.6595,-2.36847l-1.67829,5.42749l2.60134,0.80439l0.79942,-2.58528l5.05816,1.56408c0.65836,0.20358 0.88338,1.01206 0.6649,1.7186c-0.21847,0.70654 -0.82117,1.34704 -1.78611,1.2246z" data-paper-data="{&quot;glyphName&quot;:&quot;J&quot;,&quot;glyphIndex&quot;:0,&quot;firstGlyphOfWord&quot;:true,&quot;word&quot;:1}"/>
        <path d="M185.65552,195.95777c2.43706,1.21439 4.75754,-0.38982 5.85949,-2.60122c1.10195,-2.21141 0.97787,-5.01496 -1.45919,-6.22936l-3.64055,-1.81409c-2.43706,-1.21439 -4.75754,0.38982 -5.85949,2.60122c-1.10195,2.21141 -0.99292,5.00747 1.45919,6.22936zM183.3568,191.45087c-0.78227,-0.3898 -0.7837,-1.44214 -0.36391,-2.28458c0.43478,-0.87253 1.25315,-1.57269 2.08055,-1.1604l3.64055,1.81409c0.76722,0.38231 0.73107,1.4347 0.30378,2.29218c-0.42729,0.85748 -1.23816,1.5426 -2.02042,1.1528z" data-paper-data="{&quot;glyphName&quot;:&quot;O&quot;,&quot;glyphIndex&quot;:1,&quot;word&quot;:1}"/>
        <path d="M194.70327,183.1658c1.80726,-0.07395 3.27388,-0.88614 4.10321,-2.04945c1.26839,-1.77918 1.64692,-4.48173 -0.16952,-5.90053c-2.30331,-1.80718 -4.13486,-0.51204 -5.679,0.98799c-0.70086,0.63565 -1.33558,0.94689 -1.82042,0.64253c-1.09298,-0.84112 0.10508,-2.60851 1.90828,-2.85049l-0.09019,-2.47938c-1.9303,0.13072 -3.06859,1.0325 -3.90767,2.20949c-1.26839,1.77918 -1.49867,4.21587 0.40368,5.57207c1.84761,1.31717 3.84772,0.59632 5.20634,-0.78826c0.67538,-0.71573 1.62436,-1.38092 2.15228,-0.96327c0.99135,0.80995 -0.58546,2.90594 -2.45519,3.03856z" data-paper-data="{&quot;glyphName&quot;:&quot;S&quot;,&quot;glyphIndex&quot;:2,&quot;word&quot;:1}"/>
        <path d="M203.90778,167.58997l2.40315,-2.44571l3.201,3.14531l2.12043,-2.15798l-8.48805,-8.34036l-2.12043,2.15798l3.21299,3.15709l-2.40315,2.44571l-3.21299,-3.15709l-2.12043,2.15798l8.48805,8.34036l2.12043,-2.15798z" data-paper-data="{&quot;glyphName&quot;:&quot;H&quot;,&quot;glyphIndex&quot;:3,&quot;word&quot;:1}"/>
        <path d="M211.69175,150.75855l-2.4611,1.78832l4.65358,6.40429c3.26663,4.52416 10.94906,-1.05816 7.68243,-5.58232l-4.65358,-6.40429l-2.4611,1.78832l4.65358,6.40429c1.11275,1.55996 -1.63389,3.55577 -2.76024,2.00568z" data-paper-data="{&quot;glyphName&quot;:&quot;U&quot;,&quot;glyphIndex&quot;:4,&quot;word&quot;:1}"/>
        <path d="M228.65788,140.40713l-2.44455,1.23694l1.66839,12.49241l2.87947,-1.457l-0.4177,-2.4635l2.83447,-1.43424l1.76745,1.78053l2.87947,-1.457zM229.7368,147.52787l-0.79098,-3.49903l0.07499,-0.03794l2.3057,2.73259z" data-paper-data="{&quot;glyphName&quot;:&quot;A&quot;,&quot;glyphIndex&quot;:5,&quot;lastGlyphOfWord&quot;:true,&quot;word&quot;:1}"/>
        <path d="M248.80346,141.07926c0.59733,2.65654 3.30656,3.44278 5.71713,2.90076c2.41056,-0.54203 4.50606,-2.40863 3.90873,-5.06517l-0.89231,-3.96841c-0.59733,-2.65654 -3.30656,-3.44278 -5.71713,-2.90076c-2.41056,0.54203 -4.50975,2.39223 -3.90873,5.06517zM250.84646,136.45084c-0.19174,-0.85272 0.62333,-1.51836 1.54164,-1.72484c0.95111,-0.21386 2.01079,-0.02145 2.21359,0.88046l0.89231,3.96841c0.18805,0.83632 -0.65079,1.47285 -1.5855,1.68302c-0.93471,0.21017 -1.978,0.01407 -2.16973,-0.83864z" data-paper-data="{&quot;glyphName&quot;:&quot;O&quot;,&quot;glyphIndex&quot;:6,&quot;firstGlyphOfWord&quot;:true,&quot;word&quot;:2}"/>
        <path d="M265.126,141.9362l7.85032,-0.49742l-0.18813,-2.96903l-4.83096,0.3061l-0.56438,-8.90709l-3.01935,0.19131z" data-paper-data="{&quot;glyphName&quot;:&quot;L&quot;,&quot;glyphIndex&quot;:7,&quot;word&quot;:2}"/>
        <path d="M287.83648,133.98417c0.26179,-2.25491 -1.27915,-3.75417 -3.53983,-3.94898l-4.7558,-0.40982l-1.02167,11.856l4.83953,0.41704c2.62908,0.22656 4.01808,-0.81779 4.48401,-2.70083c0.22864,-0.89128 0.159,-2.43246 -1.39463,-3.39298c0.89155,-0.36179 1.32547,-1.286 1.38839,-1.82042zM282.15537,134.52368l0.18182,-2.10997l1.74156,0.15008c1.50712,0.12987 1.27506,2.23551 -0.18182,2.10997zM281.75998,139.11202l0.20924,-2.42814l1.74156,0.15008c1.77505,0.15296 1.5993,2.58398 -0.20924,2.42814z" data-paper-data="{&quot;glyphName&quot;:&quot;B&quot;,&quot;glyphIndex&quot;:8,&quot;word&quot;:2}"/>
        <path d="M298.32812,135.1057l5.09377,1.24637l0.67112,-2.7428l-8.04882,-1.96942l-2.82829,11.55895l8.04882,1.96942l0.67511,-2.75913l-5.09377,-1.24637l0.42344,-1.73058l4.68562,1.1465l0.61919,-2.53056l-4.68562,-1.1465z" data-paper-data="{&quot;glyphName&quot;:&quot;E&quot;,&quot;glyphIndex&quot;:9,&quot;word&quot;:2}"/>
        <path d="M307.13117,144.98929c0.48455,1.74266 1.61009,2.98515 2.93201,3.52703c2.02175,0.82875 4.73935,0.58036 5.70604,-1.512c1.23367,-2.65503 -0.44537,-4.14257 -2.25829,-5.30352c-0.77885,-0.53725 -1.22678,-1.08416 -1.04113,-1.62568c0.56941,-1.25613 2.56363,-0.49316 3.21084,1.20719l2.39333,-0.65379c-0.56791,-1.8495 -1.70572,-2.75187 -3.04318,-3.30012c-2.02175,-0.82875 -4.44667,-0.49672 -5.33279,1.665c-0.86063,2.09951 0.29777,3.88225 1.95594,4.88894c0.85101,0.49417 1.71526,1.26624 1.42915,1.87556c-0.56226,1.15007 -2.96286,0.09336 -3.51879,-1.69673z" data-paper-data="{&quot;glyphName&quot;:&quot;S&quot;,&quot;glyphIndex&quot;:10,&quot;lastGlyphOfWord&quot;:true,&quot;word&quot;:2}"/>
        <path d="M333.18424,147.02805l-6.98628,9.6333l3.60568,2.61492c1.92223,1.41481 4.43248,1.76115 6.0409,-0.45668l2.3485,-3.23831c1.62816,-2.24505 0.52898,-4.5371 -1.40312,-5.9383zM330.30486,156.15166l3.68062,-5.07517l1.23818,0.89795c0.81638,0.59206 0.9248,1.2728 0.47089,1.8987l-2.18075,3.007c-0.45391,0.62589 -1.14079,0.7714 -1.97077,0.16947z" data-paper-data="{&quot;glyphName&quot;:&quot;D&quot;,&quot;glyphIndex&quot;:11,&quot;firstGlyphOfWord&quot;:true,&quot;word&quot;:3}"/>
        <path d="M340.59087,162.86422c-1.93073,1.91997 -1.15391,4.63191 0.58828,6.38388c1.74219,1.75196 4.4379,2.53202 6.36863,0.61206l2.88418,-2.8681c1.93073,-1.91997 1.15391,-4.63191 -0.58828,-6.38388c-1.74219,-1.75196 -4.42598,-2.54388 -6.36863,-0.61206zM345.5965,162.12947c0.61974,-0.61629 1.61714,-0.28072 2.28083,0.3867c0.6874,0.69125 1.08869,1.69071 0.43319,2.34255l-2.88418,2.8681c-0.60782,0.60443 -1.59324,0.23324 -2.26878,-0.44609c-0.67554,-0.67933 -1.06499,-1.66687 -0.44524,-2.28316z" data-paper-data="{&quot;glyphName&quot;:&quot;O&quot;,&quot;glyphIndex&quot;:12,&quot;word&quot;:3}"/>
        <path d="M348.55779,177.13632l4.60117,6.37998l2.41294,-1.74018l-2.83149,-3.92614l7.23883,-5.22055l-1.76968,-2.45384z" data-paper-data="{&quot;glyphName&quot;:&quot;L&quot;,&quot;glyphIndex&quot;:13,&quot;word&quot;:3}"/>
        <path d="M359.35895,186.10246c-2.42208,1.24401 -2.50429,4.06382 -1.37547,6.26163c1.12882,2.19781 3.461,3.75866 5.88308,2.51466l3.61816,-1.85833c2.42208,-1.24401 2.50429,-4.06382 1.37547,-6.26163c-1.12882,-2.19781 -3.44605,-3.76634 -5.88308,-2.51466zM364.35166,186.92037c0.77746,-0.39931 1.62611,0.22294 2.05614,1.0602c0.44539,0.86716 0.52467,1.94125 -0.29764,2.3636l-3.61816,1.85833c-0.76251,0.39163 -1.58894,-0.26092 -2.02665,-1.11314c-0.43771,-0.85221 -0.50931,-1.91135 0.26814,-2.31066z" data-paper-data="{&quot;glyphName&quot;:&quot;O&quot;,&quot;glyphIndex&quot;:14,&quot;word&quot;:3}"/>
        <path d="M364.50552,208.09855l1.12748,3.57455l2.91933,-4.32226c0.8676,1.24201 2.32174,1.71743 4.42159,1.0551c2.64065,-0.90341 3.14329,-3.05347 2.40512,-5.39376l-1.43083,-4.53631l-11.34878,3.57962l0.91513,2.90131l3.60661,-1.13759l0.16179,0.51294zM369.58968,203.04059l2.59676,-0.81906l0.53088,1.68308c0.57132,1.81132 -2.02543,2.63038 -2.59676,0.81906z" data-paper-data="{&quot;glyphName&quot;:&quot;R&quot;,&quot;glyphIndex&quot;:15,&quot;lastGlyphOfWord&quot;:true,&quot;word&quot;:3}"/>
      </g>
      <g data-paper-data="{&quot;isMirroredPrimaryText&quot;:true}" fill-rule="nonzero">
        <path d="M181.79961,276.05162c-1.86326,1.23673 -1.98333,3.2844 -1.19355,4.90515c0.87393,1.79345 2.90364,3.02371 4.94951,2.02678l6.33687,-3.08789l-2.18806,-4.49028l-2.15215,1.04872l1.04224,2.13886l-4.18473,2.03917c-0.54468,0.26542 -1.17526,-0.11776 -1.4601,-0.70229c-0.28484,-0.58453 -0.28354,-1.35781 0.40896,-1.85965z" data-paper-data="{&quot;glyphName&quot;:&quot;J&quot;,&quot;glyphIndex&quot;:0,&quot;firstGlyphOfWord&quot;:true,&quot;word&quot;:1}"/>
        <path d="M188.68312,288.35203c-1.981,1.34431 -1.75166,3.81404 -0.53182,5.61162c1.21984,1.79757 3.42188,2.91076 5.40288,1.56645l2.95927,-2.00817c1.981,-1.34431 1.75166,-3.81404 0.53182,-5.61162c-1.21984,-1.79757 -3.40965,-2.91906 -5.40288,-1.56645zM193.12777,288.53274c0.63588,-0.43151 1.44297,0.02093 1.90767,0.70572c0.4813,0.70925 0.66518,1.63818 -0.00738,2.09458l-2.95927,2.00817c-0.62365,0.42321 -1.41459,-0.05805 -1.88758,-0.75507c-0.473,-0.69702 -0.64859,-1.61372 -0.01271,-2.04523z" data-paper-data="{&quot;glyphName&quot;:&quot;O&quot;,&quot;glyphIndex&quot;:1,&quot;word&quot;:1}"/>
        <path d="M195.86612,301.20225c-0.27916,1.56566 0.1401,2.97882 0.98164,3.91141c1.28705,1.42631 3.53558,2.26369 5.0981,0.97316c1.98826,-1.6349 1.22356,-3.45294 0.22845,-5.06307c-0.41286,-0.72224 -0.55975,-1.3262 -0.20651,-1.68476c0.92937,-0.77892 2.21964,0.58477 2.08552,2.1788l2.14579,0.39264c0.25374,-1.68206 -0.30468,-2.83032 -1.15611,-3.77387c-1.28705,-1.42631 -3.33543,-2.086 -4.86049,-0.70984c-1.48117,1.33656 -1.24148,3.19043 -0.31032,4.6194c0.48645,0.71556 0.87763,1.65642 0.41897,2.03049c-0.88334,0.69757 -2.38392,-1.0536 -2.1433,-2.68402z" data-paper-data="{&quot;glyphName&quot;:&quot;S&quot;,&quot;glyphIndex&quot;:2,&quot;word&quot;:1}"/>
        <path d="M208.96547,311.28553l2.30891,1.93847l-2.53711,3.02195l2.03727,1.71041l6.72762,-8.01326l-2.03727,-1.71041l-2.54661,3.03327l-2.30891,-1.93847l2.54661,-3.03327l-2.03727,-1.71041l-6.72762,8.01326l2.03727,1.71041z" data-paper-data="{&quot;glyphName&quot;:&quot;H&quot;,&quot;glyphIndex&quot;:3,&quot;word&quot;:1}"/>
        <path d="M224.20466,314.54268l-2.2769,-1.40377l-3.65289,5.92496c-2.58744,4.16865 4.52,8.55057 7.10744,4.38192l3.65289,-5.92496l-2.2769,-1.40377l-3.65289,5.92496c-0.89672,1.42631 -3.43779,-0.14032 -2.55365,-1.57439z" data-paper-data="{&quot;glyphName&quot;:&quot;U&quot;,&quot;glyphIndex&quot;:4,&quot;word&quot;:1}"/>
        <path d="M238.32722,321.92299l-2.20751,-0.96407l-7.5326,8.12756l2.60026,1.13559l1.43575,-1.66287l2.55963,1.11784l-0.21688,2.19517l2.60026,1.13559zM234.10525,326.64245l1.92854,-2.49585l0.06771,0.02957l-0.5607,3.09321z" data-paper-data="{&quot;glyphName&quot;:&quot;A&quot;,&quot;glyphIndex&quot;:5,&quot;lastGlyphOfWord&quot;:true,&quot;word&quot;:1}"/>
        <path d="M251.13353,333.62918c-0.46285,2.3489 1.43713,3.94333 3.56854,4.36333c2.13141,0.41999 4.47974,-0.33732 4.94258,-2.68622l0.69141,-3.50884c0.46285,-2.3489 -1.43713,-3.94333 -3.56854,-4.36333c-2.13141,-0.41999 -4.47688,0.32282 -4.94258,2.68622zM254.42033,330.63175c0.14857,-0.75397 1.04053,-0.99995 1.85249,-0.83996c0.84096,0.16571 1.625,0.69676 1.46786,1.49423l-0.69141,3.50884c-0.14571,0.73947 -1.04646,0.9536 -1.87292,0.79074c-0.82646,-0.16285 -1.596,-0.69105 -1.44743,-1.44502z" data-paper-data="{&quot;glyphName&quot;:&quot;O&quot;,&quot;glyphIndex&quot;:6,&quot;firstGlyphOfWord&quot;:true,&quot;word&quot;:2}"/>
        <path d="M265.68365,339.50061l6.90543,0.38551l0.1458,-2.61167l-4.2495,-0.23723l0.4374,-7.83501l-2.65593,-0.14827z" data-paper-data="{&quot;glyphName&quot;:&quot;L&quot;,&quot;glyphIndex&quot;:7,&quot;word&quot;:2}"/>
        <path d="M285.97545,332.01363c-0.092,-1.99381 -1.64141,-3.07672 -3.63074,-2.92577l-4.18497,0.31754l0.79161,10.43295l4.25865,-0.32313c2.31352,-0.17554 3.37103,-1.2784 3.50881,-2.97841c0.07225,-0.8058 -0.20633,-2.13334 -1.69049,-2.74694c0.72246,-0.44015 0.96818,-1.30357 0.94713,-1.77624zM281.12189,333.28595l-0.14088,-1.85671l1.53252,-0.11628c1.32622,-0.10063 1.42289,1.75944 0.14088,1.85671zM281.42825,337.32357l-0.16212,-2.13669l1.53252,-0.11628c1.562,-0.11852 1.75359,2.01594 0.16212,2.13669z" data-paper-data="{&quot;glyphName&quot;:&quot;B&quot;,&quot;glyphIndex&quot;:8,&quot;word&quot;:2}"/>
        <path d="M294.35773,329.92482l4.50847,-0.96594l-0.52012,-2.42764l-7.12397,1.5263l2.19193,10.23077l7.12397,-1.5263l-0.52322,-2.44209l-4.50847,0.96594l-0.32817,-1.53173l4.14722,-0.88854l-0.47987,-2.23979l-4.14722,0.88854z" data-paper-data="{&quot;glyphName&quot;:&quot;E&quot;,&quot;glyphIndex&quot;:9,&quot;word&quot;:2}"/>
        <path d="M305.93011,333.42885c1.34011,0.85635 2.80623,1.00901 3.98964,0.58779c1.80993,-0.64422 3.4431,-2.40202 2.84773,-4.33913c-0.75089,-2.46216 -2.72317,-2.45035 -4.59139,-2.14617c-0.82521,0.10549 -1.43945,0.01039 -1.63578,-0.45306c-0.36459,-1.15651 1.3887,-1.82764 2.81046,-1.09447l1.18293,-1.83283c-1.45739,-0.87735 -2.73189,-0.80018 -3.92923,-0.374c-1.80993,0.64422 -3.20241,2.28497 -2.51358,4.2202c0.669,1.87954 2.47375,2.36658 4.15011,2.05225c0.84715,-0.17604 1.86609,-0.17794 2.03647,0.38888c0.30701,1.08289 -1.88472,1.80027 -3.2994,0.95478z" data-paper-data="{&quot;glyphName&quot;:&quot;S&quot;,&quot;glyphIndex&quot;:10,&quot;lastGlyphOfWord&quot;:true,&quot;word&quot;:2}"/>
        <path d="M321.06116,317.46676l5.48372,8.91078l3.33525,-2.05252c1.79494,-1.08726 2.91893,-3.01098 1.65644,-5.06248l-1.8434,-2.99543c-1.27798,-2.07667 -3.50957,-1.95271 -5.29676,-0.85287zM327.5091,322.86896l-2.88902,-4.69452l1.14531,-0.70483c0.75515,-0.46472 1.34476,-0.32435 1.70104,0.2546l1.71172,2.78147c0.35629,0.57895 0.24399,1.18598 -0.52375,1.65845z" data-paper-data="{&quot;glyphName&quot;:&quot;D&quot;,&quot;glyphIndex&quot;:11,&quot;firstGlyphOfWord&quot;:true,&quot;word&quot;:3}"/>
        <path d="M336.45458,315.74596c1.5297,1.84162 3.96565,1.37436 5.63675,-0.0137c1.6711,-1.38806 2.56597,-3.68749 1.03627,-5.52911l-2.28511,-2.75106c-1.5297,-1.84162 -3.96565,-1.37436 -5.63675,0.0137c-1.6711,1.38806 -2.57542,3.67612 -1.03627,5.52911zM336.20434,311.30468c-0.49102,-0.59114 -0.1188,-1.43823 0.51781,-1.96701c0.65934,-0.54767 1.56612,-0.82058 2.08546,-0.19534l2.28511,2.75106c0.48157,0.57977 0.0791,1.41356 -0.56887,1.95179c-0.64798,0.53823 -1.54339,0.8017 -2.0344,0.21056z" data-paper-data="{&quot;glyphName&quot;:&quot;O&quot;,&quot;glyphIndex&quot;:12,&quot;word&quot;:3}"/>
        <path d="M350.19323,308.16771l4.65801,-5.11239l-1.93353,-1.76168l-2.86647,3.14609l-5.8006,-5.28505l-1.79154,1.9663z" data-paper-data="{&quot;glyphName&quot;:&quot;L&quot;,&quot;glyphIndex&quot;:13,&quot;word&quot;:3}"/>
        <path d="M355.79674,296.3944c1.9665,1.36544 4.18876,0.26374 5.42777,-1.52067c1.23901,-1.78441 1.48634,-4.23941 -0.48016,-5.60485l-2.93761,-2.03973c-1.9665,-1.36544 -4.18876,-0.26374 -5.42777,1.52067c-1.23901,1.78441 -1.49848,4.23098 0.48016,5.60485zM354.36786,292.18182c-0.63122,-0.43829 -0.49911,-1.35407 -0.0271,-2.03385c0.48886,-0.70405 1.28962,-1.20953 1.95726,-0.74596l2.93761,2.03973c0.61908,0.42986 0.45426,1.34092 -0.02617,2.03284c-0.48043,0.69192 -1.27277,1.18525 -1.90399,0.74697z" data-paper-data="{&quot;glyphName&quot;:&quot;O&quot;,&quot;glyphIndex&quot;:14,&quot;word&quot;:3}"/>
        <path d="M369.49587,280.37467l1.4583,-2.95531l-4.48248,0.96864c0.20458,-1.31628 -0.42952,-2.50259 -2.1656,-3.35926c-2.22608,-1.03254 -3.85296,0.02685 -4.80772,1.96172l-1.85067,3.75047l9.38279,4.62995l1.18365,-2.39871l-2.98182,-1.47138l0.20926,-0.42408zM363.19142,280.49371l-2.14691,-1.0594l0.68665,-1.39152c0.73896,-1.49754 2.88587,-0.43814 2.14691,1.0594z" data-paper-data="{&quot;glyphName&quot;:&quot;R&quot;,&quot;glyphIndex&quot;:15,&quot;lastGlyphOfWord&quot;:true,&quot;word&quot;:3}"/>
      </g>
      <g data-paper-data="{&quot;isContainerElementsWrapper&quot;:true}" fill-rule="evenodd">
        <path d="M156.13996,184.78533c6.52808,-15.43406 15.74254,-29.10158 27.64338,-41.00256c11.90083,-11.90091 25.5683,-21.11541 41.00241,-27.64348c15.98222,-6.75953 32.7204,-10.13929 50.21456,-10.13929c17.49416,0 34.23227,3.37993 50.21431,10.13929c15.43453,6.52875 29.10208,15.74324 41.00266,27.64348c11.90091,11.90121 21.11541,25.56873 27.64348,41.00256c3.83162,9.05924 6.57724,18.36135 8.23686,27.90632l-1.43535,-0.03898c-1.64657,-9.34212 -4.34586,-18.44852 -8.09789,-27.31919c-6.45734,-15.26598 -15.57116,-28.78439 -27.34247,-40.55535c-11.77148,-11.77148 -25.28986,-20.88563 -40.55515,-27.34247c-15.80712,-6.68594 -32.36261,-10.02892 -49.66646,-10.02892c-17.30402,0 -33.85946,3.3428 -49.66641,10.02892c-15.2656,6.4565 -28.78413,15.57066 -40.5556,27.34247c-11.77148,11.77134 -20.8856,25.28979 -27.34237,40.55535c-3.88193,9.17761 -6.63694,18.60748 -8.26505,28.28962l-1.45803,0.18984c1.63643,-9.93811 4.44548,-19.61398 8.4271,-29.02762zM149.05545,263.12536c1.67379,7.51675 4.0353,14.87965 7.08451,22.0887c6.52804,15.4342 15.7425,29.10175 27.64338,41.00266c11.90066,11.90091 25.56813,21.11541 41.00241,27.64348c15.98198,6.75986 32.72017,10.13979 50.21456,10.13979c17.49316,0 34.23126,-3.37993 50.21431,-10.13979c15.43353,-6.52741 29.10108,-15.7419 41.00266,-27.64348c11.90024,-11.90058 21.11474,-25.56813 27.64348,-41.00266c5.72971,-13.54782 9.03104,-27.6382 9.90399,-42.27115l-1.40676,-0.0434c-0.86727,14.45886 -4.13181,28.3811 -9.79362,41.7667c-6.4565,15.26496 -15.57066,28.78334 -27.34247,40.55515c-11.77081,11.77131 -25.28902,20.88563 -40.55515,27.34247c-15.80679,6.68628 -32.36228,10.02942 -49.66646,10.02942c-17.30409,0 -33.85956,-3.34314 -49.66641,-10.02942c-15.26484,-6.45583 -28.78338,-15.56999 -40.5556,-27.34247c-11.77124,-11.77081 -20.88536,-25.28919 -27.34237,-40.55515c-2.67404,-6.32171 -4.81334,-12.76316 -6.4179,-19.32435z" data-paper-data="{&quot;isAdditionalOutlinePath&quot;:true}"/>
        <path d="M160.18569,186.49657c6.30569,-14.90815 15.20694,-28.11058 26.70376,-39.60729c11.49688,-11.49688 24.69936,-20.39815 39.60744,-26.70381c15.43513,-6.52875 31.60294,-9.79312 48.50343,-9.79312c16.89965,0 33.06733,3.26454 48.50303,9.79312c14.90842,6.30532 28.1109,15.20659 39.60744,26.70381c11.49788,11.49768 20.39915,24.70011 26.70381,39.60729c3.58278,8.47083 6.18241,17.16194 7.79887,26.07332l-2.46082,-0.06688l-0.05519,-0.001c-1.59088,-8.55671 -4.10739,-16.90544 -7.55053,-25.0462c-6.1799,-14.61201 -14.90557,-27.5539 -26.17703,-38.82565c-11.27078,-11.27078 -24.21272,-19.99646 -38.8258,-26.17703c-15.1295,-6.39897 -30.97743,-9.59846 -47.54378,-9.59846c-16.56736,0 -32.41539,3.19949 -47.54408,9.59846c-14.61315,6.18124 -27.55498,14.90691 -38.8255,26.17703c-11.27045,11.27055 -19.99614,24.21243 -26.17708,38.82565c-3.46304,8.18747 -5.98899,16.58569 -7.57783,25.19465l-2.59342,0.50225c1.60804,-9.11575 4.24246,-18.00114 7.90328,-26.65615zM155.4709,270.36986c1.31585,4.43533 2.88745,8.81314 4.71479,13.13341c3.8246,9.04258 8.60411,17.45754 14.33854,25.24487l-0.09803,-0.48614c-0.18929,-0.93867 -0.26806,-1.88638 -0.2363,-2.84311l0.044,-1.32649c-4.6222,-6.72575 -8.54894,-13.90854 -11.78024,-21.54837c-1.06104,-2.50848 -2.03413,-5.03703 -2.91922,-7.58515zM193.65603,326.12692l-0.17946,0.02007c-0.24894,0.0281 -0.49849,0.04866 -0.74868,0.06121c-0.2502,0.01254 -0.50054,0.01806 -0.75104,0.01555c-0.2505,-0.00251 -0.50069,-0.01304 -0.75059,-0.0306c-0.2499,-0.01756 -0.49899,-0.04315 -0.74733,-0.07576c-0.19315,-0.02559 -0.38555,-0.05619 -0.5772,-0.09081c10.77373,10.09581 22.97212,18.02496 36.59516,23.78744c15.43379,6.52858 31.60177,9.79312 48.50343,9.79312c16.89915,0 33.06682,-3.26437 48.50303,-9.79312c14.90808,-6.30465 28.11056,-15.20592 39.60744,-26.70381c11.49621,-11.49655 20.39748,-24.69886 26.70381,-39.60694c5.51666,-13.0411 8.70243,-26.60648 9.55782,-40.69577l-1.47248,-0.0454l-0.99035,-0.02162c-0.84619,13.78024 -3.96708,27.04809 -9.36266,39.80356c-6.18191,14.61308 -14.90758,27.55485 -26.17703,38.8253c-11.27078,11.27112 -24.21272,19.99679 -38.8258,26.17703c-15.12967,6.39914 -30.97776,9.59846 -47.54378,9.59846c-16.56903,0 -32.41706,-3.19949 -47.54408,-9.59846c-12.4874,-5.2822 -23.75413,-12.42201 -33.8002,-21.41944z" data-paper-data="{&quot;isBaseLogoContainer&quot;:true}"/>
      </g>
    </g>
  </g>
</svg>